<svg width="512" height="512" viewBox="0 0 512 512" fill="none" xmlns="http://www.w3.org/2000/svg">
  <rect width="512" height="512" rx="96" fill="#0f0e0d"/>
  <rect x="72" y="72" width="368" height="368" rx="76" fill="#c9a96e"/>
  <rect x="128" y="128" width="256" height="256" rx="48" fill="#8b6914"/>
  <path d="M286.858 151.696C299.08 151.696 308.708 155.292 315.742 162.484C322.776 169.518 326.294 178.436 326.294 189.238C326.294 202.258 322.146 213.142 313.85 221.892C305.712 230.642 294.036 236.55 278.822 239.616L304.054 363H259.132L236.038 245.524H203.766L180.672 363H135.75L163.14 224.336C166.836 205.36 174.58 190.464 186.372 179.648C198.164 168.832 213.926 160.984 233.658 156.104C251.182 152.998 268.915 151.529 286.858 151.696ZM230.488 193.754C221.608 196.094 214.166 200.744 208.162 207.704C202.316 214.506 198.254 223.714 195.976 235.328H243.134C256.288 235.328 266.744 232.188 274.502 225.908C282.26 219.47 286.138 211.25 286.138 201.248C286.138 190.674 280.922 185.386 270.49 185.386C257.498 185.386 244.164 188.175 230.488 193.754Z" fill="#0f0e0d"/>
</svg>
